<?xml version="1.0" standalone="no"?>
<!DOCTYPE svg PUBLIC "-//W3C//DTD SVG 20010904//EN"
 "http://www.w3.org/TR/2001/REC-SVG-20010904/DTD/svg10.dtd">
<svg version="1.0" xmlns="http://www.w3.org/2000/svg"
 width="900.000000pt" height="900.000000pt" viewBox="0 0 900.000000 900.000000"
 preserveAspectRatio="xMidYMid meet">

<g transform="translate(0.000000,900.000000) scale(0.100000,-0.100000)"
fill="#000000" stroke="none">
<path d="M4270 8994 c-122 -5 -306 -24 -436 -45 -830 -130 -1571 -465 -2229
-1010 -127 -105 -436 -414 -544 -544 -534 -643 -864 -1359 -1001 -2170 -69
-409 -78 -878 -24 -1290 212 -1631 1301 -3021 2844 -3628 494 -194 1090 -307
1622 -307 957 0 1920 325 2698 912 260 196 601 526 794 767 585 732 917 1561
991 2477 106 1313 -390 2626 -1346 3559 -626 612 -1400 1022 -2254 1195 -263
54 -500 79 -785 83 -140 3 -289 3 -330 1z m465 -199 c556 -25 1165 -184 1667
-436 579 -289 1061 -678 1458 -1176 526 -658 837 -1430 922 -2290 26 -271 14
-719 -28 -1008 -174 -1200 -839 -2258 -1849 -2946 -447 -305 -988 -536 -1507
-643 -325 -68 -539 -89 -893 -90 -398 0 -681 33 -1048 125 -1108 278 -2064
988 -2650 1969 -319 536 -511 1115 -584 1762 -23 205 -23 674 0 874 83 726
304 1350 685 1929 512 781 1259 1368 2152 1692 202 73 573 166 790 197 219 32
596 58 710 50 25 -2 104 -6 175 -9z"/>
<path d="M4325 8324 c-560 -33 -1058 -166 -1550 -411 -688 -344 -1284 -928
-1652 -1617 -324 -606 -483 -1321 -444 -1989 17 -288 39 -437 102 -696 199
-817 659 -1548 1303 -2069 570 -462 1228 -743 1949 -834 209 -26 680 -32 862
-10 480 57 894 179 1302 382 325 161 583 338 868 591 619 552 1057 1346 1204
2179 72 408 72 884 0 1296 -110 637 -380 1235 -785 1744 -132 166 -428 463
-589 591 -594 473 -1288 756 -2030 828 -113 12 -448 21 -540 15z m595 -214
c1132 -126 2158 -810 2740 -1825 528 -919 613 -2097 224 -3092 -390 -999
-1193 -1772 -2211 -2127 -892 -312 -1928 -243 -2784 184 -380 190 -686 415
-994 732 -398 409 -680 881 -859 1437 -156 483 -203 1089 -126 1607 143 959
649 1809 1420 2385 331 247 737 454 1120 568 463 139 984 186 1470 131z"/>
<path d="M2960 7033 c0 -14 120 -247 136 -263 13 -13 103 -15 677 -16 364 -1
687 -4 717 -8 215 -28 399 -129 525 -288 96 -121 175 -294 175 -385 l0 -23
-427 -2 -428 -3 0 -115 0 -115 430 -5 430 -5 -1 -70 c-5 -279 -233 -594 -523
-722 -122 -54 -201 -67 -398 -66 l-183 1 0 -107 c0 -58 4 -113 10 -121 7 -12
46 -15 207 -18 470 -9 794 67 1038 243 141 101 294 269 374 410 214 374 179
886 -86 1232 -133 176 -369 334 -583 392 -194 53 -200 53 -1177 58 -502 2
-913 1 -913 -4z"/>
<path d="M3170 4450 l0 -2090 -72 -145 c-61 -123 -71 -147 -58 -155 17 -11
3264 -9 3275 1 3 4 -25 69 -63 146 l-70 139 -5 459 c-5 489 -9 546 -62 771
-87 370 -274 671 -536 864 -99 73 -276 163 -316 162 -22 -1 -270 -85 -280 -96
-2 -1 33 -31 76 -65 189 -148 310 -351 377 -628 52 -215 56 -278 61 -884 l5
-566 -39 -6 c-55 -10 -486 -8 -500 1 -10 6 -13 185 -15 818 l-3 809 -307 3
-308 2 -2 -817 -3 -818 -240 0 -240 0 -3 2093 -2 2092 -335 0 -335 0 0 -2090z"/>
</g>
</svg>
